<svg width="594" height="85" viewBox="0 0 594 85" fill="none" xmlns="http://www.w3.org/2000/svg">
<rect width="85" height="85" rx="15.3" fill="black"/>
<path d="M12.5366 45.832L26.3219 49.3868L19.1552 61.5296C19.1485 61.541 19.1418 61.5525 19.1353 61.564C18.7654 62.2215 18.6207 62.9819 18.7233 63.7293C18.8259 64.4766 19.1702 65.1699 19.7036 65.7033C20.237 66.2367 20.9303 66.581 21.6777 66.6836C22.425 66.7862 23.1854 66.6415 23.8429 66.2716C23.8544 66.2651 23.8658 66.2586 23.8771 66.2519L35.7544 59.2443L39.1595 72.4579L39.1679 72.4894C39.3691 73.2187 39.804 73.8619 40.4059 74.3203C41.0079 74.7786 41.7436 75.0269 42.5001 75.0269C43.2567 75.0269 43.9924 74.7786 44.5943 74.3203C45.1962 73.8619 45.6312 73.2187 45.8323 72.4894L45.8407 72.4579L49.2997 59.0357L61.5297 66.2539L61.5579 66.2702C62.2159 66.6437 62.9782 66.791 63.7279 66.6895C64.4777 66.588 65.1734 66.2433 65.7084 65.7083C66.2434 65.1733 66.5881 64.4776 66.6896 63.7278C66.7911 62.9781 66.6438 62.2158 66.2703 61.5578L66.254 61.5296L59.0337 49.296L72.4634 45.8352C72.4763 45.8319 72.4891 45.8284 72.5019 45.8249C73.2283 45.6215 73.8683 45.1862 74.3242 44.5852C74.7801 43.9841 75.0269 43.2505 75.0269 42.4961C75.0269 41.7418 74.7801 41.0081 74.3242 40.4071C73.8683 39.806 73.2283 39.3707 72.5019 39.1674C72.4892 39.1638 72.4764 39.1604 72.4637 39.1571L59.2483 35.7493L66.254 23.8794C66.2607 23.868 66.2674 23.8565 66.2739 23.8449C66.6438 23.1875 66.7885 22.4271 66.6859 21.6797C66.5833 20.9323 66.239 20.2391 65.7056 19.7057C65.1722 19.1722 64.4789 18.828 63.7315 18.7254C62.9842 18.6228 62.2238 18.7675 61.5663 19.1374C61.5548 19.1438 61.5434 19.1504 61.5321 19.1571L49.395 26.3179L45.8375 12.5307C45.8337 12.5158 45.8296 12.5009 45.8254 12.486C45.62 11.7624 45.1842 11.1256 44.5841 10.6721C43.984 10.2186 43.2523 9.97324 42.5001 9.97324C41.7479 9.97324 41.0163 10.2186 40.4162 10.6721C39.8161 11.1256 39.3802 11.7624 39.1749 12.486C39.1706 12.501 39.1666 12.516 39.1627 12.531L35.6618 26.1076L23.8769 19.157C23.8636 19.1491 23.8502 19.1414 23.8367 19.1339C23.1798 18.7675 22.4213 18.6253 21.6763 18.729C20.9313 18.8327 20.2404 19.1765 19.7085 19.7084C19.1767 20.2403 18.8328 20.9312 18.7291 21.6762C18.6254 22.4212 18.7676 23.1797 19.134 23.8366C19.1416 23.8501 19.1493 23.8636 19.1572 23.877L26.1073 35.6569L12.5369 39.154C12.524 39.1573 12.5112 39.1607 12.4984 39.1643C11.772 39.3676 11.132 39.803 10.6761 40.404C10.2201 41.005 9.97336 41.7387 9.97336 42.4931C9.97336 43.2474 10.2201 43.9811 10.6761 44.5821C11.132 45.1831 11.772 45.6185 12.4984 45.8218C12.5111 45.8253 12.5238 45.8288 12.5366 45.832Z" stroke="white" stroke-width="3.85333" stroke-linecap="round" stroke-linejoin="round"/>
<path d="M181.982 16.24V73H168.91V46.942L169.34 29.484H169.168L155.15 73H143.196L129.178 29.484H129.006L129.436 46.942V73H116.278V16.24H137.348L146.292 45.136L149.474 57.176H149.646L152.914 45.222L161.772 16.24H181.982ZM217.345 45.738C217.345 43.7313 216.772 42.1547 215.625 41.008C214.536 39.804 213.045 39.202 211.153 39.202C209.261 39.202 207.627 39.6893 206.251 40.664C204.933 41.5813 204.015 43.244 203.499 45.652L191.115 42.728C191.918 38.6 194.039 35.3033 197.479 32.838C200.919 30.3727 205.764 29.14 212.013 29.14C216.199 29.14 219.753 29.7707 222.677 31.032C225.659 32.236 227.923 34.0707 229.471 36.536C231.077 38.944 231.879 41.9253 231.879 45.48V61.218C231.879 63.454 232.883 64.572 234.889 64.572C235.921 64.572 236.753 64.4573 237.383 64.228L236.523 72.57C234.803 73.3727 232.711 73.774 230.245 73.774C228.009 73.774 226.031 73.43 224.311 72.742C222.591 71.9967 221.244 70.9073 220.269 69.474C219.295 67.9833 218.807 66.12 218.807 63.884V63.368L220.441 62.766C220.441 65.2313 219.696 67.2953 218.205 68.958C216.772 70.6207 214.88 71.8533 212.529 72.656C210.236 73.4587 207.828 73.86 205.305 73.86C202.381 73.86 199.83 73.4013 197.651 72.484C195.473 71.5667 193.781 70.248 192.577 68.528C191.431 66.7507 190.857 64.572 190.857 61.992C190.857 58.896 191.775 56.3447 193.609 54.338C195.501 52.274 198.454 50.8407 202.467 50.038L218.721 46.684L218.635 54.424L210.379 56.144C208.659 56.488 207.369 57.004 206.509 57.692C205.707 58.3227 205.305 59.2973 205.305 60.616C205.305 61.8773 205.764 62.8233 206.681 63.454C207.599 64.0847 208.688 64.4 209.949 64.4C210.924 64.4 211.841 64.2567 212.701 63.97C213.619 63.6833 214.421 63.2533 215.109 62.68C215.797 62.0493 216.342 61.2753 216.743 60.358C217.145 59.4407 217.345 58.3513 217.345 57.09V45.738ZM259.449 16.326V57.692C259.449 59.756 259.936 61.2467 260.911 62.164C261.943 63.024 263.347 63.454 265.125 63.454C266.501 63.454 267.676 63.3107 268.651 63.024C269.683 62.68 270.6 62.1927 271.403 61.562L272.951 70.592C271.517 71.624 269.711 72.4267 267.533 73C265.354 73.5733 263.118 73.86 260.825 73.86C257.557 73.86 254.719 73.4013 252.311 72.484C249.96 71.5667 248.125 70.1047 246.807 68.098C245.545 66.0913 244.886 63.4253 244.829 60.1V20.368L259.449 16.326ZM272.263 30V40.406H237.433V30H272.263ZM293.798 16.326V57.692C293.798 59.756 294.285 61.2467 295.26 62.164C296.292 63.024 297.697 63.454 299.474 63.454C300.85 63.454 302.025 63.3107 303 63.024C304.032 62.68 304.949 62.1927 305.752 61.562L307.3 70.592C305.867 71.624 304.061 72.4267 301.882 73C299.703 73.5733 297.467 73.86 295.174 73.86C291.906 73.86 289.068 73.4013 286.66 72.484C284.309 71.5667 282.475 70.1047 281.156 68.098C279.895 66.0913 279.235 63.4253 279.178 60.1V20.368L293.798 16.326ZM306.612 30V40.406H271.782V30H306.612ZM334.349 73.86C329.59 73.86 325.462 72.9713 321.965 71.194C318.525 69.4167 315.859 66.8653 313.967 63.54C312.075 60.2147 311.129 56.2013 311.129 51.5C311.129 46.7987 312.075 42.7853 313.967 39.46C315.859 36.1347 318.496 33.5833 321.879 31.806C325.319 30.0287 329.246 29.14 333.661 29.14C338.19 29.14 342.032 30.0287 345.185 31.806C348.396 33.526 350.832 35.934 352.495 39.03C354.158 42.0687 354.989 45.566 354.989 49.522C354.989 50.554 354.96 51.586 354.903 52.618C354.846 53.65 354.76 54.51 354.645 55.198H320.589V47.372H348.195L341.229 50.038C341.229 46.598 340.598 43.9607 339.337 42.126C338.133 40.2913 336.241 39.374 333.661 39.374C331.826 39.374 330.25 39.804 328.931 40.664C327.67 41.524 326.695 42.8713 326.007 44.706C325.376 46.5407 325.061 48.8913 325.061 51.758C325.061 54.5673 325.434 56.8607 326.179 58.638C326.924 60.358 327.985 61.6193 329.361 62.422C330.737 63.1673 332.4 63.54 334.349 63.54C336.528 63.54 338.248 63.11 339.509 62.25C340.828 61.39 341.802 60.186 342.433 58.638L354.129 62.508C353.326 64.9733 351.922 67.066 349.915 68.786C347.966 70.4487 345.615 71.71 342.863 72.57C340.168 73.43 337.33 73.86 334.349 73.86ZM363.168 73V30H376.068L376.67 39.288C377.759 36.0773 379.365 33.5833 381.486 31.806C383.665 30.0287 386.417 29.14 389.742 29.14C390.831 29.14 391.749 29.226 392.494 29.398C393.297 29.57 393.927 29.7993 394.386 30.086L392.924 42.126C392.351 41.8967 391.605 41.7247 390.688 41.61C389.828 41.438 388.767 41.352 387.506 41.352C385.786 41.352 384.181 41.7247 382.69 42.47C381.199 43.2153 379.995 44.3333 379.078 45.824C378.218 47.2573 377.788 49.092 377.788 51.328V73H363.168ZM427.727 73.86C424.918 73.86 422.424 73.2293 420.245 71.968C418.124 70.7067 416.375 68.9867 414.999 66.808C413.623 64.572 412.734 62.0493 412.333 59.24L413.709 57.434L412.935 73H400.121V11.768H414.741V43.502L413.365 41.438C414.168 37.8833 415.802 34.9593 418.267 32.666C420.732 30.3153 424.058 29.14 428.243 29.14C431.568 29.14 434.521 30.0287 437.101 31.806C439.738 33.5833 441.774 36.1633 443.207 39.546C444.698 42.8713 445.443 46.9133 445.443 51.672C445.443 56.316 444.698 60.3007 443.207 63.626C441.716 66.9513 439.652 69.5027 437.015 71.28C434.378 73 431.282 73.86 427.727 73.86ZM422.653 63.11C425.176 63.11 427.154 62.1927 428.587 60.358C430.02 58.466 430.737 55.5133 430.737 51.5C430.737 47.4867 430.02 44.5627 428.587 42.728C427.154 40.836 425.176 39.89 422.653 39.89C420.99 39.89 419.557 40.3773 418.353 41.352C417.206 42.2693 416.318 43.588 415.687 45.308C415.056 47.028 414.741 49.1207 414.741 51.586C414.741 54.0513 415.056 56.144 415.687 57.864C416.318 59.584 417.235 60.9027 418.439 61.82C419.643 62.68 421.048 63.11 422.653 63.11ZM477.613 45.738C477.613 43.7313 477.04 42.1547 475.893 41.008C474.804 39.804 473.313 39.202 471.421 39.202C469.529 39.202 467.895 39.6893 466.519 40.664C465.2 41.5813 464.283 43.244 463.767 45.652L451.383 42.728C452.186 38.6 454.307 35.3033 457.747 32.838C461.187 30.3727 466.032 29.14 472.281 29.14C476.466 29.14 480.021 29.7707 482.945 31.032C485.926 32.236 488.191 34.0707 489.739 36.536C491.344 38.944 492.147 41.9253 492.147 45.48V61.218C492.147 63.454 493.15 64.572 495.157 64.572C496.189 64.572 497.02 64.4573 497.651 64.228L496.791 72.57C495.071 73.3727 492.978 73.774 490.513 73.774C488.277 73.774 486.299 73.43 484.579 72.742C482.859 71.9967 481.512 70.9073 480.537 69.474C479.562 67.9833 479.075 66.12 479.075 63.884V63.368L480.709 62.766C480.709 65.2313 479.964 67.2953 478.473 68.958C477.04 70.6207 475.148 71.8533 472.797 72.656C470.504 73.4587 468.096 73.86 465.573 73.86C462.649 73.86 460.098 73.4013 457.919 72.484C455.74 71.5667 454.049 70.248 452.845 68.528C451.698 66.7507 451.125 64.572 451.125 61.992C451.125 58.896 452.042 56.3447 453.877 54.338C455.769 52.274 458.722 50.8407 462.735 50.038L478.989 46.684L478.903 54.424L470.647 56.144C468.927 56.488 467.637 57.004 466.777 57.692C465.974 58.3227 465.573 59.2973 465.573 60.616C465.573 61.8773 466.032 62.8233 466.949 63.454C467.866 64.0847 468.956 64.4 470.217 64.4C471.192 64.4 472.109 64.2567 472.969 63.97C473.886 63.6833 474.689 63.2533 475.377 62.68C476.065 62.0493 476.61 61.2753 477.011 60.358C477.412 59.4407 477.613 58.3513 477.613 57.09V45.738ZM521.482 73.86C517.182 73.86 513.168 73.172 509.442 71.796C505.772 70.3627 502.734 68.3273 500.326 65.69L507.206 57.606C508.639 59.4407 510.531 60.9887 512.882 62.25C515.29 63.454 517.956 64.056 520.88 64.056C522.657 64.056 524.119 63.798 525.266 63.282C526.412 62.766 526.986 61.9633 526.986 60.874C526.986 60.0713 526.699 59.4407 526.126 58.982C525.552 58.466 524.406 58.036 522.686 57.692L516.666 56.488C511.276 55.3987 507.435 53.7933 505.142 51.672C502.906 49.4933 501.788 46.6553 501.788 43.158C501.788 40.8073 502.504 38.5713 503.938 36.45C505.371 34.2713 507.578 32.5227 510.56 31.204C513.541 29.828 517.354 29.14 521.998 29.14C526.355 29.14 530.196 29.7707 533.522 31.032C536.847 32.2933 539.484 34.128 541.434 36.536L534.468 44.448C533.092 42.728 531.314 41.3807 529.136 40.406C526.957 39.4313 524.778 38.944 522.6 38.944C521.224 38.944 520.048 39.0873 519.074 39.374C518.156 39.6033 517.468 39.9473 517.01 40.406C516.551 40.8647 516.322 41.438 516.322 42.126C516.322 42.8713 516.666 43.5307 517.354 44.104C518.099 44.62 519.446 45.0787 521.396 45.48L529.222 47.028C533.636 47.8307 536.818 49.2927 538.768 51.414C540.717 53.5353 541.692 56.0867 541.692 59.068C541.692 61.8773 540.946 64.4 539.456 66.636C537.965 68.872 535.729 70.6493 532.748 71.968C529.766 73.2293 526.011 73.86 521.482 73.86ZM570.009 73.86C565.251 73.86 561.123 72.9713 557.625 71.194C554.185 69.4167 551.519 66.8653 549.627 63.54C547.735 60.2147 546.789 56.2013 546.789 51.5C546.789 46.7987 547.735 42.7853 549.627 39.46C551.519 36.1347 554.157 33.5833 557.539 31.806C560.979 30.0287 564.907 29.14 569.321 29.14C573.851 29.14 577.692 30.0287 580.845 31.806C584.056 33.526 586.493 35.934 588.155 39.03C589.818 42.0687 590.649 45.566 590.649 49.522C590.649 50.554 590.621 51.586 590.563 52.618C590.506 53.65 590.42 54.51 590.305 55.198H556.249V47.372H583.855L576.889 50.038C576.889 46.598 576.259 43.9607 574.997 42.126C573.793 40.2913 571.901 39.374 569.321 39.374C567.487 39.374 565.91 39.804 564.591 40.664C563.33 41.524 562.355 42.8713 561.667 44.706C561.037 46.5407 560.721 48.8913 560.721 51.758C560.721 54.5673 561.094 56.8607 561.839 58.638C562.585 60.358 563.645 61.6193 565.021 62.422C566.397 63.1673 568.06 63.54 570.009 63.54C572.188 63.54 573.908 63.11 575.169 62.25C576.488 61.39 577.463 60.186 578.093 58.638L589.789 62.508C588.987 64.9733 587.582 67.066 585.575 68.786C583.626 70.4487 581.275 71.71 578.523 72.57C575.829 73.43 572.991 73.86 570.009 73.86Z" fill="black"/>
</svg>
