<svg width="150" height="150" viewBox="0 0 150 150" fill="none" xmlns="http://www.w3.org/2000/svg">
<rect width="150" height="150" rx="27" fill="black"/>
<path d="M22.1233 80.8803L46.4504 87.1533L33.8033 108.582C33.7914 108.602 33.7797 108.622 33.7682 108.643C33.1154 109.803 32.86 111.145 33.0411 112.464C33.2222 113.782 33.8297 115.006 34.771 115.947C35.7124 116.889 36.9358 117.496 38.2547 117.677C39.5735 117.858 40.9154 117.603 42.0756 116.95C42.0959 116.939 42.116 116.927 42.136 116.915L63.0959 104.549L69.105 127.867C69.1098 127.886 69.1148 127.904 69.1199 127.923C69.4749 129.21 70.2424 130.345 71.3046 131.154C72.3668 131.962 73.6651 132.401 75.0002 132.401C76.3353 132.401 77.6336 131.962 78.6958 131.154C79.758 130.345 80.5255 129.21 80.8805 127.923C80.8829 127.914 80.8852 127.906 80.8874 127.897C80.8901 127.887 80.8928 127.877 80.8954 127.867L86.9993 104.181L108.582 116.919C108.598 116.929 108.615 116.938 108.632 116.948C109.793 117.607 111.138 117.867 112.461 117.687C113.784 117.508 115.012 116.9 115.956 115.956C116.9 115.012 117.508 113.784 117.687 112.461C117.867 111.138 117.607 109.793 116.948 108.632C116.938 108.615 116.929 108.598 116.919 108.582L104.177 86.9932L127.877 80.8858C127.899 80.8799 127.922 80.8739 127.944 80.8676C129.226 80.5088 130.356 79.7405 131.16 78.6799C131.965 77.6192 132.4 76.3245 132.4 74.9933C132.4 73.6621 131.965 72.3674 131.16 71.3068C130.356 70.2461 129.226 69.4778 127.944 69.1191C127.922 69.1128 127.9 69.1068 127.877 69.101L104.556 63.0873L116.919 42.1403C116.931 42.1202 116.942 42.0999 116.954 42.0795C117.607 40.9193 117.862 39.5774 117.681 38.2585C117.5 36.9396 116.892 35.7162 115.951 34.7749C115.01 33.8335 113.786 33.226 112.467 33.0449C111.148 32.8639 109.807 33.1192 108.646 33.772C108.636 33.7776 108.626 33.7833 108.617 33.789C108.606 33.7949 108.596 33.8009 108.586 33.8068L87.1676 46.4436L80.8897 22.1133C80.8829 22.0869 80.8758 22.0606 80.8684 22.0344C80.5059 20.7574 79.7368 19.6335 78.6778 18.8333C77.6188 18.033 76.3276 17.6 75.0002 17.6C73.6728 17.6 72.3816 18.033 71.3226 18.8333C70.2636 19.6335 69.4945 20.7574 69.1321 22.0344C69.1246 22.0607 69.1174 22.0872 69.1106 22.1138L62.9325 46.0724L42.1356 33.8066C42.1121 33.7927 42.0885 33.7792 42.0647 33.7659C40.9055 33.1192 39.567 32.8684 38.2522 33.0513C36.9375 33.2343 35.7183 33.8411 34.7797 34.7797C33.8411 35.7184 33.2343 36.9375 33.0513 38.2522C32.8684 39.567 33.1192 40.9055 33.7659 42.0647C33.7792 42.0887 33.7929 42.1124 33.8068 42.1361L46.0717 62.924L22.1238 69.0954C22.1012 69.1013 22.0786 69.1074 22.056 69.1137C20.774 69.4724 19.6446 70.2408 18.84 71.3014C18.0355 72.362 17.6 73.6567 17.6 74.9879C17.6 76.3192 18.0355 77.6139 18.84 78.6745C19.6446 79.7351 20.774 80.5034 22.056 80.8622C22.0784 80.8684 22.1008 80.8745 22.1233 80.8803Z" stroke="white" stroke-width="6.8" stroke-linecap="round" stroke-linejoin="round"/>
</svg>
